<svg xmlns="http://www.w3.org/2000/svg" viewBox="0 0 1536 794" preserveAspectRatio="xMidYMid" width="1536" height="794" style="shape-rendering: auto; display: block; background: rgb(255, 255, 255);"><g data-idx="1"><defs data-idx="2">
<linearGradient y2="1" y1="0" x2="0" x1="0" id="lg-0.6590519274487807" data-idx="3">
  <stop offset="0.3" stop-color="rgba(255, 255, 255, 0.965)" data-idx="4"></stop>
  <stop offset="0.6499999999999999" stop-color="rgba(255, 255, 255, 0.8)" data-idx="5"></stop>
  <stop offset="1" stop-color="rgba(255, 255, 255, 0.8)" data-idx="6"></stop>
</linearGradient>
<linearGradient y2="1" y1="0" x2="0" x1="0" id="fg-lg-0.6590519274487807" data-idx="7">
  <stop offset="0.3" stop-opacity="1" stop-color="rgba(255, 255, 255, 0.965)" data-idx="8"></stop>
  <stop offset="0.6499999999999999" stop-opacity="0.66" stop-color="rgba(255, 255, 255, 0.8)" data-idx="9"></stop>
  <stop offset="1" stop-opacity="0" stop-color="rgba(255, 255, 255, 0.8)" data-idx="10"></stop>
</linearGradient>
<style type="text/css" data-idx="11">
  path { fill: none; stroke: #f97316; stroke-width: 2px }
</style>
</defs>
<rect fill="url(#lg-0.6590519274487807)" height="794" width="1536" y="0" x="0" data-idx="12"></rect><path d="M0 238.2 L-10752 794" data-idx="13" style="fill: none; stroke: rgb(249, 115, 22);"></path><path d="M11.815384615384616 238.2 L-10574.76923076923 794" data-idx="14" style="fill: none; stroke: rgb(249, 115, 22);"></path><path d="M23.630769230769232 238.2 L-10397.538461538461 794" data-idx="15" style="fill: none; stroke: rgb(249, 115, 22);"></path><path d="M35.44615384615385 238.2 L-10220.307692307691 794" data-idx="16" style="fill: none; stroke: rgb(249, 115, 22);"></path><path d="M47.261538461538464 238.2 L-10043.076923076924 794" data-idx="17" style="fill: none; stroke: rgb(249, 115, 22);"></path><path d="M59.07692307692308 238.2 L-9865.846153846154 794" data-idx="18" style="fill: none; stroke: rgb(249, 115, 22);"></path><path d="M70.8923076923077 238.2 L-9688.615384615385 794" data-idx="19" style="fill: none; stroke: rgb(249, 115, 22);"></path><path d="M82.70769230769231 238.2 L-9511.384615384615 794" data-idx="20" style="fill: none; stroke: rgb(249, 115, 22);"></path><path d="M94.52307692307693 238.2 L-9334.153846153846 794" data-idx="21" style="fill: none; stroke: rgb(249, 115, 22);"></path><path d="M106.33846153846154 238.2 L-9156.923076923076 794" data-idx="22" style="fill: none; stroke: rgb(249, 115, 22);"></path><path d="M118.15384615384616 238.2 L-8979.692307692309 794" data-idx="23" style="fill: none; stroke: rgb(249, 115, 22);"></path><path d="M129.96923076923076 238.2 L-8802.461538461539 794" data-idx="24" style="fill: none; stroke: rgb(249, 115, 22);"></path><path d="M141.7846153846154 238.2 L-8625.23076923077 794" data-idx="25" style="fill: none; stroke: rgb(249, 115, 22);"></path><path d="M153.6 238.2 L-8448 794" data-idx="26" style="fill: none; stroke: rgb(249, 115, 22);"></path><path d="M165.41538461538462 238.2 L-8270.76923076923 794" data-idx="27" style="fill: none; stroke: rgb(249, 115, 22);"></path><path d="M177.23076923076923 238.2 L-8093.538461538461 794" data-idx="28" style="fill: none; stroke: rgb(249, 115, 22);"></path><path d="M189.04615384615386 238.2 L-7916.307692307692 794" data-idx="29" style="fill: none; stroke: rgb(249, 115, 22);"></path><path d="M200.86153846153846 238.2 L-7739.076923076923 794" data-idx="30" style="fill: none; stroke: rgb(249, 115, 22);"></path><path d="M212.6769230769231 238.2 L-7561.846153846154 794" data-idx="31" style="fill: none; stroke: rgb(249, 115, 22);"></path><path d="M224.4923076923077 238.2 L-7384.615384615385 794" data-idx="32" style="fill: none; stroke: rgb(249, 115, 22);"></path><path d="M236.30769230769232 238.2 L-7207.384615384615 794" data-idx="33" style="fill: none; stroke: rgb(249, 115, 22);"></path><path d="M248.12307692307692 238.2 L-7030.153846153846 794" data-idx="34" style="fill: none; stroke: rgb(249, 115, 22);"></path><path d="M259.9384615384615 238.2 L-6852.923076923077 794" data-idx="35" style="fill: none; stroke: rgb(249, 115, 22);"></path><path d="M271.75384615384615 238.2 L-6675.692307692308 794" data-idx="36" style="fill: none; stroke: rgb(249, 115, 22);"></path><path d="M283.5692307692308 238.2 L-6498.461538461538 794" data-idx="37" style="fill: none; stroke: rgb(249, 115, 22);"></path><path d="M295.38461538461536 238.2 L-6321.2307692307695 794" data-idx="38" style="fill: none; stroke: rgb(249, 115, 22);"></path><path d="M307.2 238.2 L-6144 794" data-idx="39" style="fill: none; stroke: rgb(249, 115, 22);"></path><path d="M319.0153846153846 238.2 L-5966.7692307692305 794" data-idx="40" style="fill: none; stroke: rgb(249, 115, 22);"></path><path d="M330.83076923076925 238.2 L-5789.538461538462 794" data-idx="41" style="fill: none; stroke: rgb(249, 115, 22);"></path><path d="M342.6461538461538 238.2 L-5612.307692307692 794" data-idx="42" style="fill: none; stroke: rgb(249, 115, 22);"></path><path d="M354.46153846153845 238.2 L-5435.076923076923 794" data-idx="43" style="fill: none; stroke: rgb(249, 115, 22);"></path><path d="M366.2769230769231 238.2 L-5257.846153846154 794" data-idx="44" style="fill: none; stroke: rgb(249, 115, 22);"></path><path d="M378.0923076923077 238.2 L-5080.615384615385 794" data-idx="45" style="fill: none; stroke: rgb(249, 115, 22);"></path><path d="M389.9076923076923 238.2 L-4903.384615384615 794" data-idx="46" style="fill: none; stroke: rgb(249, 115, 22);"></path><path d="M401.7230769230769 238.2 L-4726.153846153846 794" data-idx="47" style="fill: none; stroke: rgb(249, 115, 22);"></path><path d="M413.53846153846155 238.2 L-4548.923076923077 794" data-idx="48" style="fill: none; stroke: rgb(249, 115, 22);"></path><path d="M425.3538461538462 238.2 L-4371.692307692308 794" data-idx="49" style="fill: none; stroke: rgb(249, 115, 22);"></path><path d="M437.16923076923075 238.2 L-4194.461538461538 794" data-idx="50" style="fill: none; stroke: rgb(249, 115, 22);"></path><path d="M448.9846153846154 238.2 L-4017.2307692307695 794" data-idx="51" style="fill: none; stroke: rgb(249, 115, 22);"></path><path d="M460.8 238.2 L-3840 794" data-idx="52" style="fill: none; stroke: rgb(249, 115, 22);"></path><path d="M472.61538461538464 238.2 L-3662.7692307692305 794" data-idx="53" style="fill: none; stroke: rgb(249, 115, 22);"></path><path d="M484.4307692307692 238.2 L-3485.538461538462 794" data-idx="54" style="fill: none; stroke: rgb(249, 115, 22);"></path><path d="M496.24615384615385 238.2 L-3308.3076923076924 794" data-idx="55" style="fill: none; stroke: rgb(249, 115, 22);"></path><path d="M508.0615384615385 238.2 L-3131.076923076923 794" data-idx="56" style="fill: none; stroke: rgb(249, 115, 22);"></path><path d="M519.876923076923 238.2 L-2953.8461538461543 794" data-idx="57" style="fill: none; stroke: rgb(249, 115, 22);"></path><path d="M531.6923076923077 238.2 L-2776.6153846153848 794" data-idx="58" style="fill: none; stroke: rgb(249, 115, 22);"></path><path d="M543.5076923076923 238.2 L-2599.3846153846152 794" data-idx="59" style="fill: none; stroke: rgb(249, 115, 22);"></path><path d="M555.3230769230769 238.2 L-2422.1538461538457 794" data-idx="60" style="fill: none; stroke: rgb(249, 115, 22);"></path><path d="M567.1384615384616 238.2 L-2244.923076923076 794" data-idx="61" style="fill: none; stroke: rgb(249, 115, 22);"></path><path d="M578.9538461538461 238.2 L-2067.6923076923085 794" data-idx="62" style="fill: none; stroke: rgb(249, 115, 22);"></path><path d="M590.7692307692307 238.2 L-1890.461538461539 794" data-idx="63" style="fill: none; stroke: rgb(249, 115, 22);"></path><path d="M602.5846153846154 238.2 L-1713.2307692307695 794" data-idx="64" style="fill: none; stroke: rgb(249, 115, 22);"></path><path d="M614.4 238.2 L-1536 794" data-idx="65" style="fill: none; stroke: rgb(249, 115, 22);"></path><path d="M626.2153846153847 238.2 L-1358.7692307692305 794" data-idx="66" style="fill: none; stroke: rgb(249, 115, 22);"></path><path d="M638.0307692307692 238.2 L-1181.538461538461 794" data-idx="67" style="fill: none; stroke: rgb(249, 115, 22);"></path><path d="M649.8461538461538 238.2 L-1004.3076923076915 794" data-idx="68" style="fill: none; stroke: rgb(249, 115, 22);"></path><path d="M661.6615384615385 238.2 L-827.0769230769238 794" data-idx="69" style="fill: none; stroke: rgb(249, 115, 22);"></path><path d="M673.4769230769231 238.2 L-649.8461538461543 794" data-idx="70" style="fill: none; stroke: rgb(249, 115, 22);"></path><path d="M685.2923076923076 238.2 L-472.61538461538476 794" data-idx="71" style="fill: none; stroke: rgb(249, 115, 22);"></path><path d="M697.1076923076923 238.2 L-295.38461538461524 794" data-idx="72" style="fill: none; stroke: rgb(249, 115, 22);"></path><path d="M708.9230769230769 238.2 L-118.15384615384573 794" data-idx="73" style="fill: none; stroke: rgb(249, 115, 22);"></path><path d="M720.7384615384616 238.2 L59.07692307692378 794" data-idx="74" style="fill: none; stroke: rgb(249, 115, 22);"></path><path d="M732.5538461538462 238.2 L236.30769230769147 794" data-idx="75" style="fill: none; stroke: rgb(249, 115, 22);"></path><path d="M744.3692307692307 238.2 L413.538461538461 794" data-idx="76" style="fill: none; stroke: rgb(249, 115, 22);"></path><path d="M756.1846153846154 238.2 L590.7692307692305 794" data-idx="77" style="fill: none; stroke: rgb(249, 115, 22);"></path><path d="M768 238.2 L768 794" data-idx="78" style="fill: none; stroke: rgb(249, 115, 22);"></path><path d="M779.8153846153846 238.2 L945.2307692307695 794" data-idx="79" style="fill: none; stroke: rgb(249, 115, 22);"></path><path d="M791.6307692307693 238.2 L1122.461538461539 794" data-idx="80" style="fill: none; stroke: rgb(249, 115, 22);"></path><path d="M803.4461538461538 238.2 L1299.6923076923085 794" data-idx="81" style="fill: none; stroke: rgb(249, 115, 22);"></path><path d="M815.2615384615384 238.2 L1476.9230769230762 794" data-idx="82" style="fill: none; stroke: rgb(249, 115, 22);"></path><path d="M827.0769230769231 238.2 L1654.1538461538457 794" data-idx="83" style="fill: none; stroke: rgb(249, 115, 22);"></path><path d="M838.8923076923077 238.2 L1831.3846153846152 794" data-idx="84" style="fill: none; stroke: rgb(249, 115, 22);"></path><path d="M850.7076923076924 238.2 L2008.6153846153848 794" data-idx="85" style="fill: none; stroke: rgb(249, 115, 22);"></path><path d="M862.5230769230769 238.2 L2185.8461538461543 794" data-idx="86" style="fill: none; stroke: rgb(249, 115, 22);"></path><path d="M874.3384615384615 238.2 L2363.076923076924 794" data-idx="87" style="fill: none; stroke: rgb(249, 115, 22);"></path><path d="M886.1538461538462 238.2 L2540.3076923076915 794" data-idx="88" style="fill: none; stroke: rgb(249, 115, 22);"></path><path d="M897.9692307692308 238.2 L2717.538461538461 794" data-idx="89" style="fill: none; stroke: rgb(249, 115, 22);"></path><path d="M909.7846153846153 238.2 L2894.7692307692305 794" data-idx="90" style="fill: none; stroke: rgb(249, 115, 22);"></path><path d="M921.6 238.2 L3072 794" data-idx="91" style="fill: none; stroke: rgb(249, 115, 22);"></path><path d="M933.4153846153846 238.2 L3249.2307692307695 794" data-idx="92" style="fill: none; stroke: rgb(249, 115, 22);"></path><path d="M945.2307692307693 238.2 L3426.461538461539 794" data-idx="93" style="fill: none; stroke: rgb(249, 115, 22);"></path><path d="M957.0461538461539 238.2 L3603.6923076923085 794" data-idx="94" style="fill: none; stroke: rgb(249, 115, 22);"></path><path d="M968.8615384615384 238.2 L3780.923076923076 794" data-idx="95" style="fill: none; stroke: rgb(249, 115, 22);"></path><path d="M980.6769230769231 238.2 L3958.1538461538457 794" data-idx="96" style="fill: none; stroke: rgb(249, 115, 22);"></path><path d="M992.4923076923077 238.2 L4135.384615384615 794" data-idx="97" style="fill: none; stroke: rgb(249, 115, 22);"></path><path d="M1004.3076923076923 238.2 L4312.615384615385 794" data-idx="98" style="fill: none; stroke: rgb(249, 115, 22);"></path><path d="M1016.123076923077 238.2 L4489.846153846154 794" data-idx="99" style="fill: none; stroke: rgb(249, 115, 22);"></path><path d="M1027.9384615384615 238.2 L4667.076923076924 794" data-idx="100" style="fill: none; stroke: rgb(249, 115, 22);"></path><path d="M1039.753846153846 238.2 L4844.3076923076915 794" data-idx="101" style="fill: none; stroke: rgb(249, 115, 22);"></path><path d="M1051.5692307692307 238.2 L5021.538461538461 794" data-idx="102" style="fill: none; stroke: rgb(249, 115, 22);"></path><path d="M1063.3846153846155 238.2 L5198.7692307692305 794" data-idx="103" style="fill: none; stroke: rgb(249, 115, 22);"></path><path d="M1075.2 238.2 L5376 794" data-idx="104" style="fill: none; stroke: rgb(249, 115, 22);"></path><path d="M1087.0153846153846 238.2 L5553.2307692307695 794" data-idx="105" style="fill: none; stroke: rgb(249, 115, 22);"></path><path d="M1098.8307692307692 238.2 L5730.461538461539 794" data-idx="106" style="fill: none; stroke: rgb(249, 115, 22);"></path><path d="M1110.6461538461538 238.2 L5907.6923076923085 794" data-idx="107" style="fill: none; stroke: rgb(249, 115, 22);"></path><path d="M1122.4615384615386 238.2 L6084.923076923078 794" data-idx="108" style="fill: none; stroke: rgb(249, 115, 22);"></path><path d="M1134.2769230769231 238.2 L6262.153846153848 794" data-idx="109" style="fill: none; stroke: rgb(249, 115, 22);"></path><path d="M1146.0923076923077 238.2 L6439.384615384617 794" data-idx="110" style="fill: none; stroke: rgb(249, 115, 22);"></path><path d="M1157.9076923076923 238.2 L6616.615384615383 794" data-idx="111" style="fill: none; stroke: rgb(249, 115, 22);"></path><path d="M1169.7230769230769 238.2 L6793.846153846152 794" data-idx="112" style="fill: none; stroke: rgb(249, 115, 22);"></path><path d="M1181.5384615384614 238.2 L6971.076923076922 794" data-idx="113" style="fill: none; stroke: rgb(249, 115, 22);"></path><path d="M1193.3538461538462 238.2 L7148.3076923076915 794" data-idx="114" style="fill: none; stroke: rgb(249, 115, 22);"></path><path d="M1205.1692307692308 238.2 L7325.538461538461 794" data-idx="115" style="fill: none; stroke: rgb(249, 115, 22);"></path><path d="M1216.9846153846154 238.2 L7502.7692307692305 794" data-idx="116" style="fill: none; stroke: rgb(249, 115, 22);"></path><path d="M1228.8 238.2 L7680 794" data-idx="117" style="fill: none; stroke: rgb(249, 115, 22);"></path><path d="M1240.6153846153845 238.2 L7857.2307692307695 794" data-idx="118" style="fill: none; stroke: rgb(249, 115, 22);"></path><path d="M1252.4307692307693 238.2 L8034.461538461539 794" data-idx="119" style="fill: none; stroke: rgb(249, 115, 22);"></path><path d="M1264.246153846154 238.2 L8211.692307692309 794" data-idx="120" style="fill: none; stroke: rgb(249, 115, 22);"></path><path d="M1276.0615384615385 238.2 L8388.923076923078 794" data-idx="121" style="fill: none; stroke: rgb(249, 115, 22);"></path><path d="M1287.876923076923 238.2 L8566.153846153848 794" data-idx="122" style="fill: none; stroke: rgb(249, 115, 22);"></path><path d="M1299.6923076923076 238.2 L8743.384615384617 794" data-idx="123" style="fill: none; stroke: rgb(249, 115, 22);"></path><path d="M1311.5076923076922 238.2 L8920.615384615383 794" data-idx="124" style="fill: none; stroke: rgb(249, 115, 22);"></path><path d="M1323.323076923077 238.2 L9097.846153846152 794" data-idx="125" style="fill: none; stroke: rgb(249, 115, 22);"></path><path d="M1335.1384615384616 238.2 L9275.076923076922 794" data-idx="126" style="fill: none; stroke: rgb(249, 115, 22);"></path><path d="M1346.9538461538461 238.2 L9452.307692307691 794" data-idx="127" style="fill: none; stroke: rgb(249, 115, 22);"></path><path d="M1358.7692307692307 238.2 L9629.538461538461 794" data-idx="128" style="fill: none; stroke: rgb(249, 115, 22);"></path><path d="M1370.5846153846153 238.2 L9806.76923076923 794" data-idx="129" style="fill: none; stroke: rgb(249, 115, 22);"></path><path d="M1382.4 238.2 L9984 794" data-idx="130" style="fill: none; stroke: rgb(249, 115, 22);"></path><path d="M1394.2153846153847 238.2 L10161.23076923077 794" data-idx="131" style="fill: none; stroke: rgb(249, 115, 22);"></path><path d="M1406.0307692307692 238.2 L10338.461538461539 794" data-idx="132" style="fill: none; stroke: rgb(249, 115, 22);"></path><path d="M1417.8461538461538 238.2 L10515.692307692309 794" data-idx="133" style="fill: none; stroke: rgb(249, 115, 22);"></path><path d="M1429.6615384615384 238.2 L10692.923076923078 794" data-idx="134" style="fill: none; stroke: rgb(249, 115, 22);"></path><path d="M1441.4769230769232 238.2 L10870.153846153848 794" data-idx="135" style="fill: none; stroke: rgb(249, 115, 22);"></path><path d="M1453.2923076923078 238.2 L11047.384615384617 794" data-idx="136" style="fill: none; stroke: rgb(249, 115, 22);"></path><path d="M1465.1076923076923 238.2 L11224.615384615383 794" data-idx="137" style="fill: none; stroke: rgb(249, 115, 22);"></path><path d="M1476.923076923077 238.2 L11401.846153846152 794" data-idx="138" style="fill: none; stroke: rgb(249, 115, 22);"></path><path d="M1488.7384615384615 238.2 L11579.076923076922 794" data-idx="139" style="fill: none; stroke: rgb(249, 115, 22);"></path><path d="M1500.553846153846 238.2 L11756.307692307691 794" data-idx="140" style="fill: none; stroke: rgb(249, 115, 22);"></path><path d="M1512.3692307692309 238.2 L11933.538461538461 794" data-idx="141" style="fill: none; stroke: rgb(249, 115, 22);"></path><path d="M1524.1846153846154 238.2 L12110.76923076923 794" data-idx="142" style="fill: none; stroke: rgb(249, 115, 22);"></path><path d="M1536 238.2 L12288 794" data-idx="143" style="fill: none; stroke: rgb(249, 115, 22);"></path><g data-idx="144" transform="matrix(1,0,0,1,0,3.398206949234009)">
<path d="M0 238.2 L1536 238.2" data-idx="145" style="fill: none; stroke: rgb(249, 115, 22);"></path>


</g><g data-idx="147" transform="matrix(1,0,0,1,0,6.796413898468018)">
<path d="M0 242.4096094674556 L1536 242.4096094674556" data-idx="148" style="fill: none; stroke: rgb(249, 115, 22);"></path>


</g><g data-idx="150" transform="matrix(1,0,0,1,0,10.194620132446289)">
<path d="M0 250.82882840236684 L1536 250.82882840236684" data-idx="151" style="fill: none; stroke: rgb(249, 115, 22);"></path>


</g><g data-idx="153" transform="matrix(1,0,0,1,0,13.592827796936035)">
<path d="M0 263.4576568047337 L1536 263.4576568047337" data-idx="154" style="fill: none; stroke: rgb(249, 115, 22);"></path>


</g><g data-idx="156" transform="matrix(1,0,0,1,0,16.99103546142578)">
<path d="M0 280.2960946745562 L1536 280.2960946745562" data-idx="157" style="fill: none; stroke: rgb(249, 115, 22);"></path>


</g><g data-idx="159" transform="matrix(1,0,0,1,0,20.389240264892578)">
<path d="M0 301.34414201183426 L1536 301.34414201183426" data-idx="160" style="fill: none; stroke: rgb(249, 115, 22);"></path>


</g><g data-idx="162" transform="matrix(1,0,0,1,0,23.787446975708008)">
<path d="M0 326.601798816568 L1536 326.601798816568" data-idx="163" style="fill: none; stroke: rgb(249, 115, 22);"></path>


</g><g data-idx="165" transform="matrix(1,0,0,1,0,27.18565559387207)">
<path d="M0 356.0690650887574 L1536 356.0690650887574" data-idx="166" style="fill: none; stroke: rgb(249, 115, 22);"></path>


</g><g data-idx="168" transform="matrix(1,0,0,1,0,30.5838623046875)">
<path d="M0 389.74594082840235 L1536 389.74594082840235" data-idx="169" style="fill: none; stroke: rgb(249, 115, 22);"></path>


</g><g data-idx="171" transform="matrix(1,0,0,1,0,33.98207092285156)">
<path d="M0 427.63242603550293 L1536 427.63242603550293" data-idx="172" style="fill: none; stroke: rgb(249, 115, 22);"></path>


</g><g data-idx="174" transform="matrix(1,0,0,1,0,37.380271911621094)">
<path d="M0 469.7285207100591 L1536 469.7285207100591" data-idx="175" style="fill: none; stroke: rgb(249, 115, 22);"></path>


</g><g data-idx="177" transform="matrix(1,0,0,1,0,40.778480529785156)">
<path d="M0 516.0342248520709 L1536 516.0342248520709" data-idx="178" style="fill: none; stroke: rgb(249, 115, 22);"></path>


</g><g data-idx="180" transform="matrix(1,0,0,1,0,44.17668914794922)">
<path d="M0 566.5495384615383 L1536 566.5495384615383" data-idx="181" style="fill: none; stroke: rgb(249, 115, 22);"></path>


</g><g data-idx="183" transform="matrix(1,0,0,1,0,47.574893951416016)">
<path d="M0 621.2744615384614 L1536 621.2744615384614" data-idx="184" style="fill: none; stroke: rgb(249, 115, 22);"></path>


</g><g data-idx="186" transform="matrix(1,0,0,1,0,50.97310256958008)">
<path d="M0 680.2089940828401 L1536 680.2089940828401" data-idx="187" style="fill: none; stroke: rgb(249, 115, 22);"></path>


</g><g data-idx="189" transform="matrix(1,0,0,1,0,54.37131118774414)">
<path d="M0 743.3531360946745 L1536 743.3531360946745" data-idx="190" style="fill: none; stroke: rgb(249, 115, 22);"></path>


</g><g data-idx="192" transform="matrix(1,0,0,1,0,57.76951599121094)">
<path d="M0 810.7068875739644 L1536 810.7068875739644" data-idx="193" style="fill: none; stroke: rgb(249, 115, 22);"></path>


</g><rect fill="url(#fg-lg-0.6590519274487807)" height="794" width="1536" y="0" x="0" data-idx="195"></rect><g data-idx="196"></g></g><text data-watermark="true" text-anchor="middle" dominant-baseline="middle" stroke-opacity="0.1" fill="black" fill-opacity="0.1" stroke="white" stroke-width="1" font-size="15.0" x="768.0" y="397.0" data-idx="197" style="opacity: 1; font-size: 15px;">LOADING.IO</text></svg>