<svg width="148" height="148" viewBox="0 0 148 148" fill="none" xmlns="http://www.w3.org/2000/svg">
<circle cx="74" cy="74" r="74" fill="#F97316"/>
<path d="M48.1 49.16C47.54 49.72 46.84 50 46 50C45.16 50 44.44 49.72 43.84 49.16C43.28 48.56 43 47.84 43 47C43 46.16 43.28 45.46 43.84 44.9C44.44 44.3 45.16 44 46 44C46.84 44 47.54 44.3 48.1 44.9C48.7 45.46 49 46.16 49 47C49 47.84 48.7 48.56 48.1 49.16ZM102.1 49.16C101.54 49.72 100.84 50 100 50C99.16 50 98.44 49.72 97.84 49.16C97.28 48.56 97 47.84 97 47C97 46.16 97.28 45.46 97.84 44.9C98.44 44.3 99.16 44 100 44C100.84 44 101.54 44.3 102.1 44.9C102.7 45.46 103 46.16 103 47C103 47.84 102.7 48.56 102.1 49.16ZM96.1 49.16C95.54 49.72 94.84 50 94 50C93.16 50 92.44 49.72 91.84 49.16C91.28 48.56 91 47.84 91 47C91 46.16 91.28 45.46 91.84 44.9C92.44 44.3 93.16 44 94 44C94.84 44 95.54 44.3 96.1 44.9C96.7 45.46 97 46.16 97 47C97 47.84 96.7 48.56 96.1 49.16ZM54.1 49.16C53.54 49.72 52.84 50 52 50C51.16 50 50.44 49.72 49.84 49.16C49.28 48.56 49 47.84 49 47C49 46.16 49.28 45.46 49.84 44.9C50.44 44.3 51.16 44 52 44C52.84 44 53.54 44.3 54.1 44.9C54.7 45.46 55 46.16 55 47C55 47.84 54.7 48.56 54.1 49.16ZM48.1 55.16C47.54 55.72 46.84 56 46 56C45.16 56 44.44 55.72 43.84 55.16C43.28 54.56 43 53.84 43 53C43 52.16 43.28 51.46 43.84 50.9C44.44 50.3 45.16 50 46 50C46.84 50 47.54 50.3 48.1 50.9C48.7 51.46 49 52.16 49 53C49 53.84 48.7 54.56 48.1 55.16ZM102.1 55.16C101.54 55.72 100.84 56 100 56C99.16 56 98.44 55.72 97.84 55.16C97.28 54.56 97 53.84 97 53C97 52.16 97.28 51.46 97.84 50.9C98.44 50.3 99.16 50 100 50C100.84 50 101.54 50.3 102.1 50.9C102.7 51.46 103 52.16 103 53C103 53.84 102.7 54.56 102.1 55.16ZM54.1 55.16C53.54 55.72 52.84 56 52 56C51.16 56 50.44 55.72 49.84 55.16C49.28 54.56 49 53.84 49 53C49 52.16 49.28 51.46 49.84 50.9C50.44 50.3 51.16 50 52 50C52.84 50 53.54 50.3 54.1 50.9C54.7 51.46 55 52.16 55 53C55 53.84 54.7 54.56 54.1 55.16ZM96.1 55.16C95.54 55.72 94.84 56 94 56C93.16 56 92.44 55.72 91.84 55.16C91.28 54.56 91 53.84 91 53C91 52.16 91.28 51.46 91.84 50.9C92.44 50.3 93.16 50 94 50C94.84 50 95.54 50.3 96.1 50.9C96.7 51.46 97 52.16 97 53C97 53.84 96.7 54.56 96.1 55.16ZM48.1 61.16C47.54 61.72 46.84 62 46 62C45.16 62 44.44 61.72 43.84 61.16C43.28 60.56 43 59.84 43 59C43 58.16 43.28 57.46 43.84 56.9C44.44 56.3 45.16 56 46 56C46.84 56 47.54 56.3 48.1 56.9C48.7 57.46 49 58.16 49 59C49 59.84 48.7 60.56 48.1 61.16ZM90.1 61.16C89.54 61.72 88.84 62 88 62C87.16 62 86.44 61.72 85.84 61.16C85.28 60.56 85 59.84 85 59C85 58.16 85.28 57.46 85.84 56.9C86.44 56.3 87.16 56 88 56C88.84 56 89.54 56.3 90.1 56.9C90.7 57.46 91 58.16 91 59C91 59.84 90.7 60.56 90.1 61.16ZM60.1 61.16C59.54 61.72 58.84 62 58 62C57.16 62 56.44 61.72 55.84 61.16C55.28 60.56 55 59.84 55 59C55 58.16 55.28 57.46 55.84 56.9C56.44 56.3 57.16 56 58 56C58.84 56 59.54 56.3 60.1 56.9C60.7 57.46 61 58.16 61 59C61 59.84 60.7 60.56 60.1 61.16ZM96.1 61.16C95.54 61.72 94.84 62 94 62C93.16 62 92.44 61.72 91.84 61.16C91.28 60.56 91 59.84 91 59C91 58.16 91.28 57.46 91.84 56.9C92.44 56.3 93.16 56 94 56C94.84 56 95.54 56.3 96.1 56.9C96.7 57.46 97 58.16 97 59C97 59.84 96.7 60.56 96.1 61.16ZM102.1 61.16C101.54 61.72 100.84 62 100 62C99.16 62 98.44 61.72 97.84 61.16C97.28 60.56 97 59.84 97 59C97 58.16 97.28 57.46 97.84 56.9C98.44 56.3 99.16 56 100 56C100.84 56 101.54 56.3 102.1 56.9C102.7 57.46 103 58.16 103 59C103 59.84 102.7 60.56 102.1 61.16ZM54.1 61.16C53.54 61.72 52.84 62 52 62C51.16 62 50.44 61.72 49.84 61.16C49.28 60.56 49 59.84 49 59C49 58.16 49.28 57.46 49.84 56.9C50.44 56.3 51.16 56 52 56C52.84 56 53.54 56.3 54.1 56.9C54.7 57.46 55 58.16 55 59C55 59.84 54.7 60.56 54.1 61.16ZM96.1 67.16C95.54 67.72 94.84 68 94 68C93.16 68 92.44 67.72 91.84 67.16C91.28 66.56 91 65.84 91 65C91 64.16 91.28 63.46 91.84 62.9C92.44 62.3 93.16 62 94 62C94.84 62 95.54 62.3 96.1 62.9C96.7 63.46 97 64.16 97 65C97 65.84 96.7 66.56 96.1 67.16ZM48.1 67.16C47.54 67.72 46.84 68 46 68C45.16 68 44.44 67.72 43.84 67.16C43.28 66.56 43 65.84 43 65C43 64.16 43.28 63.46 43.84 62.9C44.44 62.3 45.16 62 46 62C46.84 62 47.54 62.3 48.1 62.9C48.7 63.46 49 64.16 49 65C49 65.84 48.7 66.56 48.1 67.16ZM102.1 67.16C101.54 67.72 100.84 68 100 68C99.16 68 98.44 67.72 97.84 67.16C97.28 66.56 97 65.84 97 65C97 64.16 97.28 63.46 97.84 62.9C98.44 62.3 99.16 62 100 62C100.84 62 101.54 62.3 102.1 62.9C102.7 63.46 103 64.16 103 65C103 65.84 102.7 66.56 102.1 67.16ZM90.1 67.16C89.54 67.72 88.84 68 88 68C87.16 68 86.44 67.72 85.84 67.16C85.28 66.56 85 65.84 85 65C85 64.16 85.28 63.46 85.84 62.9C86.44 62.3 87.16 62 88 62C88.84 62 89.54 62.3 90.1 62.9C90.7 63.46 91 64.16 91 65C91 65.84 90.7 66.56 90.1 67.16ZM54.1 67.16C53.54 67.72 52.84 68 52 68C51.16 68 50.44 67.72 49.84 67.16C49.28 66.56 49 65.84 49 65C49 64.16 49.28 63.46 49.84 62.9C50.44 62.3 51.16 62 52 62C52.84 62 53.54 62.3 54.1 62.9C54.7 63.46 55 64.16 55 65C55 65.84 54.7 66.56 54.1 67.16ZM60.1 67.16C59.54 67.72 58.84 68 58 68C57.16 68 56.44 67.72 55.84 67.16C55.28 66.56 55 65.84 55 65C55 64.16 55.28 63.46 55.84 62.9C56.44 62.3 57.16 62 58 62C58.84 62 59.54 62.3 60.1 62.9C60.7 63.46 61 64.16 61 65C61 65.84 60.7 66.56 60.1 67.16ZM48.1 73.16C47.54 73.72 46.84 74 46 74C45.16 74 44.44 73.72 43.84 73.16C43.28 72.56 43 71.84 43 71C43 70.16 43.28 69.46 43.84 68.9C44.44 68.3 45.16 68 46 68C46.84 68 47.54 68.3 48.1 68.9C48.7 69.46 49 70.16 49 71C49 71.84 48.7 72.56 48.1 73.16ZM54.1 73.16C53.54 73.72 52.84 74 52 74C51.16 74 50.44 73.72 49.84 73.16C49.28 72.56 49 71.84 49 71C49 70.16 49.28 69.46 49.84 68.9C50.44 68.3 51.16 68 52 68C52.84 68 53.54 68.3 54.1 68.9C54.7 69.46 55 70.16 55 71C55 71.84 54.7 72.56 54.1 73.16ZM96.1 73.16C95.54 73.72 94.84 74 94 74C93.16 74 92.44 73.72 91.84 73.16C91.28 72.56 91 71.84 91 71C91 70.16 91.28 69.46 91.84 68.9C92.44 68.3 93.16 68 94 68C94.84 68 95.54 68.3 96.1 68.9C96.7 69.46 97 70.16 97 71C97 71.84 96.7 72.56 96.1 73.16ZM102.1 73.16C101.54 73.72 100.84 74 100 74C99.16 74 98.44 73.72 97.84 73.16C97.28 72.56 97 71.84 97 71C97 70.16 97.28 69.46 97.84 68.9C98.44 68.3 99.16 68 100 68C100.84 68 101.54 68.3 102.1 68.9C102.7 69.46 103 70.16 103 71C103 71.84 102.7 72.56 102.1 73.16ZM60.1 73.16C59.54 73.72 58.84 74 58 74C57.16 74 56.44 73.72 55.84 73.16C55.28 72.56 55 71.84 55 71C55 70.16 55.28 69.46 55.84 68.9C56.44 68.3 57.16 68 58 68C58.84 68 59.54 68.3 60.1 68.9C60.7 69.46 61 70.16 61 71C61 71.84 60.7 72.56 60.1 73.16ZM90.1 73.16C89.54 73.72 88.84 74 88 74C87.16 74 86.44 73.72 85.84 73.16C85.28 72.56 85 71.84 85 71C85 70.16 85.28 69.46 85.84 68.9C86.44 68.3 87.16 68 88 68C88.84 68 89.54 68.3 90.1 68.9C90.7 69.46 91 70.16 91 71C91 71.84 90.7 72.56 90.1 73.16ZM84.1 73.16C83.54 73.72 82.84 74 82 74C81.16 74 80.44 73.72 79.84 73.16C79.28 72.56 79 71.84 79 71C79 70.16 79.28 69.46 79.84 68.9C80.44 68.3 81.16 68 82 68C82.84 68 83.54 68.3 84.1 68.9C84.7 69.46 85 70.16 85 71C85 71.84 84.7 72.56 84.1 73.16ZM66.1 73.16C65.54 73.72 64.84 74 64 74C63.16 74 62.44 73.72 61.84 73.16C61.28 72.56 61 71.84 61 71C61 70.16 61.28 69.46 61.84 68.9C62.44 68.3 63.16 68 64 68C64.84 68 65.54 68.3 66.1 68.9C66.7 69.46 67 70.16 67 71C67 71.84 66.7 72.56 66.1 73.16ZM48.1 79.16C47.54 79.72 46.84 80 46 80C45.16 80 44.44 79.72 43.84 79.16C43.28 78.56 43 77.84 43 77C43 76.16 43.28 75.46 43.84 74.9C44.44 74.3 45.16 74 46 74C46.84 74 47.54 74.3 48.1 74.9C48.7 75.46 49 76.16 49 77C49 77.84 48.7 78.56 48.1 79.16ZM54.1 79.16C53.54 79.72 52.84 80 52 80C51.16 80 50.44 79.72 49.84 79.16C49.28 78.56 49 77.84 49 77C49 76.16 49.28 75.46 49.84 74.9C50.44 74.3 51.16 74 52 74C52.84 74 53.54 74.3 54.1 74.9C54.7 75.46 55 76.16 55 77C55 77.84 54.7 78.56 54.1 79.16ZM96.1 79.16C95.54 79.72 94.84 80 94 80C93.16 80 92.44 79.72 91.84 79.16C91.28 78.56 91 77.84 91 77C91 76.16 91.28 75.46 91.84 74.9C92.44 74.3 93.16 74 94 74C94.84 74 95.54 74.3 96.1 74.9C96.7 75.46 97 76.16 97 77C97 77.84 96.7 78.56 96.1 79.16ZM102.1 79.16C101.54 79.72 100.84 80 100 80C99.16 80 98.44 79.72 97.84 79.16C97.28 78.56 97 77.84 97 77C97 76.16 97.28 75.46 97.84 74.9C98.44 74.3 99.16 74 100 74C100.84 74 101.54 74.3 102.1 74.9C102.7 75.46 103 76.16 103 77C103 77.84 102.7 78.56 102.1 79.16ZM60.1 79.16C59.54 79.72 58.84 80 58 80C57.16 80 56.44 79.72 55.84 79.16C55.28 78.56 55 77.84 55 77C55 76.16 55.28 75.46 55.84 74.9C56.44 74.3 57.16 74 58 74C58.84 74 59.54 74.3 60.1 74.9C60.7 75.46 61 76.16 61 77C61 77.84 60.7 78.56 60.1 79.16ZM90.1 79.16C89.54 79.72 88.84 80 88 80C87.16 80 86.44 79.72 85.84 79.16C85.28 78.56 85 77.84 85 77C85 76.16 85.28 75.46 85.84 74.9C86.44 74.3 87.16 74 88 74C88.84 74 89.54 74.3 90.1 74.9C90.7 75.46 91 76.16 91 77C91 77.84 90.7 78.56 90.1 79.16ZM66.1 79.16C65.54 79.72 64.84 80 64 80C63.16 80 62.44 79.72 61.84 79.16C61.28 78.56 61 77.84 61 77C61 76.16 61.28 75.46 61.84 74.9C62.44 74.3 63.16 74 64 74C64.84 74 65.54 74.3 66.1 74.9C66.7 75.46 67 76.16 67 77C67 77.84 66.7 78.56 66.1 79.16ZM84.1 79.16C83.54 79.72 82.84 80 82 80C81.16 80 80.44 79.72 79.84 79.16C79.28 78.56 79 77.84 79 77C79 76.16 79.28 75.46 79.84 74.9C80.44 74.3 81.16 74 82 74C82.84 74 83.54 74.3 84.1 74.9C84.7 75.46 85 76.16 85 77C85 77.84 84.7 78.56 84.1 79.16ZM48.1 85.16C47.54 85.72 46.84 86 46 86C45.16 86 44.44 85.72 43.84 85.16C43.28 84.56 43 83.84 43 83C43 82.16 43.28 81.46 43.84 80.9C44.44 80.3 45.16 80 46 80C46.84 80 47.54 80.3 48.1 80.9C48.7 81.46 49 82.16 49 83C49 83.84 48.7 84.56 48.1 85.16ZM84.1 85.16C83.54 85.72 82.84 86 82 86C81.16 86 80.44 85.72 79.84 85.16C79.28 84.56 79 83.84 79 83C79 82.16 79.28 81.46 79.84 80.9C80.44 80.3 81.16 80 82 80C82.84 80 83.54 80.3 84.1 80.9C84.7 81.46 85 82.16 85 83C85 83.84 84.7 84.56 84.1 85.16ZM72.1 85.16C71.54 85.72 70.84 86 70 86C69.16 86 68.44 85.72 67.84 85.16C67.28 84.56 67 83.84 67 83C67 82.16 67.28 81.46 67.84 80.9C68.44 80.3 69.16 80 70 80C70.84 80 71.54 80.3 72.1 80.9C72.7 81.46 73 82.16 73 83C73 83.84 72.7 84.56 72.1 85.16ZM96.1 85.16C95.54 85.72 94.84 86 94 86C93.16 86 92.44 85.72 91.84 85.16C91.28 84.56 91 83.84 91 83C91 82.16 91.28 81.46 91.84 80.9C92.44 80.3 93.16 80 94 80C94.84 80 95.54 80.3 96.1 80.9C96.7 81.46 97 82.16 97 83C97 83.84 96.7 84.56 96.1 85.16ZM54.1 85.16C53.54 85.72 52.84 86 52 86C51.16 86 50.44 85.72 49.84 85.16C49.28 84.56 49 83.84 49 83C49 82.16 49.28 81.46 49.84 80.9C50.44 80.3 51.16 80 52 80C52.84 80 53.54 80.3 54.1 80.9C54.7 81.46 55 82.16 55 83C55 83.84 54.7 84.56 54.1 85.16ZM78.1 85.16C77.54 85.72 76.84 86 76 86C75.16 86 74.44 85.72 73.84 85.16C73.28 84.56 73 83.84 73 83C73 82.16 73.28 81.46 73.84 80.9C74.44 80.3 75.16 80 76 80C76.84 80 77.54 80.3 78.1 80.9C78.7 81.46 79 82.16 79 83C79 83.84 78.7 84.56 78.1 85.16ZM102.1 85.16C101.54 85.72 100.84 86 100 86C99.16 86 98.44 85.72 97.84 85.16C97.28 84.56 97 83.84 97 83C97 82.16 97.28 81.46 97.84 80.9C98.44 80.3 99.16 80 100 80C100.84 80 101.54 80.3 102.1 80.9C102.7 81.46 103 82.16 103 83C103 83.84 102.7 84.56 102.1 85.16ZM66.1 85.16C65.54 85.72 64.84 86 64 86C63.16 86 62.44 85.72 61.84 85.16C61.28 84.56 61 83.84 61 83C61 82.16 61.28 81.46 61.84 80.9C62.44 80.3 63.16 80 64 80C64.84 80 65.54 80.3 66.1 80.9C66.7 81.46 67 82.16 67 83C67 83.84 66.7 84.56 66.1 85.16ZM78.1 91.16C77.54 91.72 76.84 92 76 92C75.16 92 74.44 91.72 73.84 91.16C73.28 90.56 73 89.84 73 89C73 88.16 73.28 87.46 73.84 86.9C74.44 86.3 75.16 86 76 86C76.84 86 77.54 86.3 78.1 86.9C78.7 87.46 79 88.16 79 89C79 89.84 78.7 90.56 78.1 91.16ZM66.1 91.16C65.54 91.72 64.84 92 64 92C63.16 92 62.44 91.72 61.84 91.16C61.28 90.56 61 89.84 61 89C61 88.16 61.28 87.46 61.84 86.9C62.44 86.3 63.16 86 64 86C64.84 86 65.54 86.3 66.1 86.9C66.7 87.46 67 88.16 67 89C67 89.84 66.7 90.56 66.1 91.16ZM102.1 91.16C101.54 91.72 100.84 92 100 92C99.16 92 98.44 91.72 97.84 91.16C97.28 90.56 97 89.84 97 89C97 88.16 97.28 87.46 97.84 86.9C98.44 86.3 99.16 86 100 86C100.84 86 101.54 86.3 102.1 86.9C102.7 87.46 103 88.16 103 89C103 89.84 102.7 90.56 102.1 91.16ZM96.1 91.16C95.54 91.72 94.84 92 94 92C93.16 92 92.44 91.72 91.84 91.16C91.28 90.56 91 89.84 91 89C91 88.16 91.28 87.46 91.84 86.9C92.44 86.3 93.16 86 94 86C94.84 86 95.54 86.3 96.1 86.9C96.7 87.46 97 88.16 97 89C97 89.84 96.7 90.56 96.1 91.16ZM72.1 91.16C71.54 91.72 70.84 92 70 92C69.16 92 68.44 91.72 67.84 91.16C67.28 90.56 67 89.84 67 89C67 88.16 67.28 87.46 67.84 86.9C68.44 86.3 69.16 86 70 86C70.84 86 71.54 86.3 72.1 86.9C72.7 87.46 73 88.16 73 89C73 89.84 72.7 90.56 72.1 91.16ZM54.1 91.16C53.54 91.72 52.84 92 52 92C51.16 92 50.44 91.72 49.84 91.16C49.28 90.56 49 89.84 49 89C49 88.16 49.28 87.46 49.84 86.9C50.44 86.3 51.16 86 52 86C52.84 86 53.54 86.3 54.1 86.9C54.7 87.46 55 88.16 55 89C55 89.84 54.7 90.56 54.1 91.16ZM48.1 91.16C47.54 91.72 46.84 92 46 92C45.16 92 44.44 91.72 43.84 91.16C43.28 90.56 43 89.84 43 89C43 88.16 43.28 87.46 43.84 86.9C44.44 86.3 45.16 86 46 86C46.84 86 47.54 86.3 48.1 86.9C48.7 87.46 49 88.16 49 89C49 89.84 48.7 90.56 48.1 91.16ZM84.1 91.16C83.54 91.72 82.84 92 82 92C81.16 92 80.44 91.72 79.84 91.16C79.28 90.56 79 89.84 79 89C79 88.16 79.28 87.46 79.84 86.9C80.44 86.3 81.16 86 82 86C82.84 86 83.54 86.3 84.1 86.9C84.7 87.46 85 88.16 85 89C85 89.84 84.7 90.56 84.1 91.16ZM72.1 97.16C71.54 97.72 70.84 98 70 98C69.16 98 68.44 97.72 67.84 97.16C67.28 96.56 67 95.84 67 95C67 94.16 67.28 93.46 67.84 92.9C68.44 92.3 69.16 92 70 92C70.84 92 71.54 92.3 72.1 92.9C72.7 93.46 73 94.16 73 95C73 95.84 72.7 96.56 72.1 97.16ZM96.1 97.16C95.54 97.72 94.84 98 94 98C93.16 98 92.44 97.72 91.84 97.16C91.28 96.56 91 95.84 91 95C91 94.16 91.28 93.46 91.84 92.9C92.44 92.3 93.16 92 94 92C94.84 92 95.54 92.3 96.1 92.9C96.7 93.46 97 94.16 97 95C97 95.84 96.7 96.56 96.1 97.16ZM102.1 97.16C101.54 97.72 100.84 98 100 98C99.16 98 98.44 97.72 97.84 97.16C97.28 96.56 97 95.84 97 95C97 94.16 97.28 93.46 97.84 92.9C98.44 92.3 99.16 92 100 92C100.84 92 101.54 92.3 102.1 92.9C102.7 93.46 103 94.16 103 95C103 95.84 102.7 96.56 102.1 97.16ZM54.1 97.16C53.54 97.72 52.84 98 52 98C51.16 98 50.44 97.72 49.84 97.16C49.28 96.56 49 95.84 49 95C49 94.16 49.28 93.46 49.84 92.9C50.44 92.3 51.16 92 52 92C52.84 92 53.54 92.3 54.1 92.9C54.7 93.46 55 94.16 55 95C55 95.84 54.7 96.56 54.1 97.16ZM48.1 97.16C47.54 97.72 46.84 98 46 98C45.16 98 44.44 97.72 43.84 97.16C43.28 96.56 43 95.84 43 95C43 94.16 43.28 93.46 43.84 92.9C44.44 92.3 45.16 92 46 92C46.84 92 47.54 92.3 48.1 92.9C48.7 93.46 49 94.16 49 95C49 95.84 48.7 96.56 48.1 97.16ZM78.1 97.16C77.54 97.72 76.84 98 76 98C75.16 98 74.44 97.72 73.84 97.16C73.28 96.56 73 95.84 73 95C73 94.16 73.28 93.46 73.84 92.9C74.44 92.3 75.16 92 76 92C76.84 92 77.54 92.3 78.1 92.9C78.7 93.46 79 94.16 79 95C79 95.84 78.7 96.56 78.1 97.16ZM72.1 103.16C71.54 103.72 70.84 104 70 104C69.16 104 68.44 103.72 67.84 103.16C67.28 102.56 67 101.84 67 101C67 100.16 67.28 99.46 67.84 98.9C68.44 98.3 69.16 98 70 98C70.84 98 71.54 98.3 72.1 98.9C72.7 99.46 73 100.16 73 101C73 101.84 72.7 102.56 72.1 103.16ZM54.1 103.16C53.54 103.72 52.84 104 52 104C51.16 104 50.44 103.72 49.84 103.16C49.28 102.56 49 101.84 49 101C49 100.16 49.28 99.46 49.84 98.9C50.44 98.3 51.16 98 52 98C52.84 98 53.54 98.3 54.1 98.9C54.7 99.46 55 100.16 55 101C55 101.84 54.7 102.56 54.1 103.16ZM102.1 103.16C101.54 103.72 100.84 104 100 104C99.16 104 98.44 103.72 97.84 103.16C97.28 102.56 97 101.84 97 101C97 100.16 97.28 99.46 97.84 98.9C98.44 98.3 99.16 98 100 98C100.84 98 101.54 98.3 102.1 98.9C102.7 99.46 103 100.16 103 101C103 101.84 102.7 102.56 102.1 103.16ZM96.1 103.16C95.54 103.72 94.84 104 94 104C93.16 104 92.44 103.72 91.84 103.16C91.28 102.56 91 101.84 91 101C91 100.16 91.28 99.46 91.84 98.9C92.44 98.3 93.16 98 94 98C94.84 98 95.54 98.3 96.1 98.9C96.7 99.46 97 100.16 97 101C97 101.84 96.7 102.56 96.1 103.16ZM78.1 103.16C77.54 103.72 76.84 104 76 104C75.16 104 74.44 103.72 73.84 103.16C73.28 102.56 73 101.84 73 101C73 100.16 73.28 99.46 73.84 98.9C74.44 98.3 75.16 98 76 98C76.84 98 77.54 98.3 78.1 98.9C78.7 99.46 79 100.16 79 101C79 101.84 78.7 102.56 78.1 103.16ZM48.1 103.16C47.54 103.72 46.84 104 46 104C45.16 104 44.44 103.72 43.84 103.16C43.28 102.56 43 101.84 43 101C43 100.16 43.28 99.46 43.84 98.9C44.44 98.3 45.16 98 46 98C46.84 98 47.54 98.3 48.1 98.9C48.7 99.46 49 100.16 49 101C49 101.84 48.7 102.56 48.1 103.16Z" fill="white"/>
</svg>
